<svg width="241" height="115" viewBox="0 0 241 115" fill="none" xmlns="http://www.w3.org/2000/svg">
<path d="M81.7137 82.9463H71.8204C71.592 82.9463 71.4778 82.8035 71.4778 82.518V72.2394H52.5051C52.2767 72.2394 52.1625 72.0966 52.1625 71.8111V62.1748L71.2637 22.2594C71.4064 22.031 71.592 21.9168 71.8204 21.9168H81.7137C81.885 21.9168 81.9706 22.031 81.9706 22.2594L82.0563 61.7894H88.2235C88.509 61.7894 88.6517 61.9464 88.6517 62.2605V71.8111C88.6517 72.0966 88.5375 72.2394 88.3091 72.2394H82.0563V82.518C82.0563 82.8035 81.9421 82.9463 81.7137 82.9463ZM62.5268 61.7894H71.4778V42.6882L62.5268 61.7894ZM104.284 82.9463H94.3478C94.1194 82.9463 94.0052 82.8321 94.0052 82.6037V72.6676C94.0052 72.4392 94.1194 72.325 94.3478 72.325H104.284C104.512 72.325 104.626 72.4392 104.626 72.6676V82.6037C104.626 82.8321 104.512 82.9463 104.284 82.9463ZM127.24 83.8028C124.156 83.8028 121.301 83.0034 118.674 81.4045C116.047 79.8056 113.949 77.6642 112.378 74.9803C110.837 72.2679 110.066 69.3128 110.066 66.115V64.3591C110.066 64.1306 110.208 64.0164 110.494 64.0164H120.344C120.573 64.0164 120.687 64.1306 120.687 64.3591V66.115C120.687 68.028 121.329 69.684 122.614 71.083C123.899 72.4535 125.441 73.1387 127.24 73.1387C129.067 73.1387 130.623 72.4535 131.908 71.083C133.193 69.684 133.835 68.028 133.835 66.115V60.0334C131.779 60.9186 129.581 61.3611 127.24 61.3611C124.07 61.3611 121.215 60.5759 118.674 59.0056C116.104 57.4352 114.034 55.3224 112.464 52.6671C110.922 49.9832 110.151 47.0424 110.151 43.8446V38.4054C110.151 35.1505 110.936 32.224 112.507 29.6258C114.049 26.999 116.119 24.9004 118.717 23.3301C121.315 21.7312 124.156 20.9317 127.24 20.9317C130.352 20.9317 133.207 21.7169 135.805 23.2873C138.403 24.8576 140.488 26.9847 142.058 29.6686C143.657 32.3239 144.456 35.2362 144.456 38.4054V43.8446L144.542 66.115C144.542 69.3128 143.757 72.2536 142.186 74.9375C140.616 77.6214 138.518 79.777 135.891 81.4045C133.293 83.0034 130.409 83.8028 127.24 83.8028ZM127.24 50.7398C129.124 50.7398 130.694 50.0689 131.951 48.7269C133.207 47.385 133.835 45.7575 133.835 43.8446V38.4054C133.835 36.521 133.193 34.8936 131.908 33.5231C130.623 32.1526 129.067 31.4673 127.24 31.4673C125.441 31.4673 123.913 32.1383 122.657 33.4803C121.401 34.8222 120.773 36.4639 120.773 38.4054V43.8446C120.773 45.7004 121.401 47.3136 122.657 48.6841C123.913 50.0546 125.441 50.7398 127.24 50.7398ZM167.455 83.8028C164.4 83.8028 161.559 83.0034 158.932 81.4045C156.334 79.8056 154.235 77.6928 152.636 75.066C151.066 72.4392 150.281 69.5412 150.281 66.372L150.195 38.6624C150.195 35.4646 150.995 32.5095 152.594 29.7971C154.192 27.1132 156.291 24.9718 158.889 23.3729C161.516 21.7455 164.371 20.9317 167.455 20.9317C170.595 20.9317 173.479 21.7312 176.106 23.3301C178.704 24.9575 180.774 27.0989 182.316 29.7542C183.886 32.4096 184.672 35.3789 184.672 38.6624V40.4183C184.672 40.6468 184.529 40.761 184.243 40.761H174.393C174.164 40.761 174.05 40.6468 174.05 40.4183V38.6624C174.05 36.7209 173.422 35.0649 172.166 33.6944C170.91 32.3239 169.339 31.6387 167.455 31.6387C165.656 31.6387 164.114 32.3239 162.829 33.6944C161.545 35.0649 160.902 36.7209 160.902 38.6624V44.7011C162.958 43.816 165.142 43.3735 167.455 43.3735C170.624 43.3735 173.508 44.1586 176.106 45.729C178.704 47.2993 180.76 49.4264 182.273 52.1103C183.815 54.7656 184.586 57.7065 184.586 60.9328V66.372C184.586 69.5412 183.815 72.4535 182.273 75.1088C180.703 77.7641 178.633 79.877 176.063 81.4473C173.493 83.0177 170.624 83.8028 167.455 83.8028ZM167.455 73.31C169.282 73.31 170.824 72.6391 172.08 71.2971C173.336 69.9552 173.965 68.3135 173.965 66.372V60.9328C173.965 59.0484 173.336 57.421 172.08 56.0505C170.824 54.68 169.282 53.9947 167.455 53.9947C165.656 53.9947 164.114 54.6657 162.829 56.0076C161.545 57.3496 160.902 58.9913 160.902 60.9328V66.372C160.902 68.2278 161.545 69.8553 162.829 71.2543C164.114 72.6248 165.656 73.31 167.455 73.31Z" fill="#291703"/>
<path d="M22.3802 100.831C19.5083 100.16 16.6687 99.6993 13.9841 98.786C12.5669 98.3039 11.2863 97.1693 10.1797 96.0891C8.18152 94.1388 6.77546 91.7432 5.68692 89.1748C5.56256 88.8818 5.44667 88.5736 5.40168 88.2616C5.26992 87.3479 6.02877 86.6992 6.87177 87.0443C9.64843 88.181 12.46 89.2507 15.1636 90.5428C17.8244 91.8138 19.7141 94.0513 21.5695 96.2693C22.223 97.0502 22.8713 97.8481 23.4036 98.7107C23.6254 99.0701 23.7079 99.6972 23.5407 100.059C23.3819 100.403 22.8152 100.561 22.3797 100.831L22.3802 100.831Z" fill="#291703"/>
<path d="M1.37891 74.4935C1.50803 74.2864 1.65197 73.7721 1.96313 73.635C2.27588 73.4975 2.82783 73.6224 3.1501 73.8274C5.31449 75.2017 7.53708 76.5112 9.55488 78.0789C10.8863 79.1138 12.0632 80.4376 13.0274 81.8261C14.1826 83.4892 15.0897 85.3341 15.9861 87.1573C16.2084 87.6089 16.1549 88.3973 15.8866 88.8115C15.7215 89.066 14.8425 89.0728 14.398 88.9005C12.2527 88.0679 10.119 87.1948 8.03452 86.222C6.25168 85.3899 5.10281 83.8507 4.11905 82.2134C2.8818 80.1541 2.00758 77.9424 1.52655 75.5848C1.46887 75.3013 1.4477 75.0099 1.37891 74.4935Z" fill="#291703"/>
<path d="M24.8541 82.4163C24.7017 83.0655 24.4673 84.2264 24.154 85.3657C23.5772 87.463 22.9887 89.5582 22.323 91.6286C22.1854 92.0565 21.7398 92.5782 21.3435 92.6736C20.9931 92.7579 20.3438 92.4196 20.1168 92.0771C18.1323 89.085 16.713 85.851 17.2899 82.1908C17.5306 80.6631 18.3768 79.2108 19.0605 77.7775C19.622 76.6003 20.3025 75.471 21.0312 74.3876C21.2614 74.0456 21.8345 73.7173 22.2166 73.7521C22.5976 73.7868 23.1189 74.2152 23.2633 74.591C24.1619 76.9328 24.6869 79.3668 24.8546 82.4163H24.8541Z" fill="#291703"/>
<path d="M11.3039 75.0819C11.2971 76.1654 10.4885 76.6865 9.64493 76.1364C7.66999 74.848 5.6088 73.6397 3.84448 72.1004C2.75277 71.1482 1.95686 69.7301 1.35782 68.3764C0.339133 66.0767 -0.0805138 63.5948 0.0126236 61.0685C0.0300868 60.5916 0.321141 59.9751 0.692103 59.719C0.897957 59.5767 1.62083 59.9493 1.95422 60.2575C3.55766 61.7383 5.17963 63.2111 6.65077 64.8173C7.58003 65.8322 8.46589 66.9884 8.99932 68.2383C9.89523 70.3377 10.4959 72.5625 11.2182 74.7352C11.2637 74.8717 11.2875 75.015 11.3039 75.0819Z" fill="#291703"/>
<path d="M20.5883 68.5384C20.8058 71.4451 19.7734 73.9551 18.2895 76.3696C17.5465 77.579 17.0353 78.928 16.3294 80.1632C16.0844 80.5911 15.5647 81.1396 15.1768 81.1343C14.7725 81.1285 14.1809 80.5984 14.0094 80.1647C12.8918 77.335 12.3615 74.4056 13.0616 71.384C13.2405 70.6115 13.5771 69.8158 14.0443 69.1792C15.3017 67.4687 16.6702 65.8394 17.991 64.1752C18.3631 63.7067 18.8811 63.3115 19.4082 63.6235C19.8056 63.859 20.1507 64.4303 20.2311 64.9014C20.4359 66.0991 20.4793 67.3243 20.5878 68.5384H20.5883Z" fill="#291703"/>
<path d="M0.730998 50.1321C0.815139 49.4007 0.891342 48.1486 1.13583 46.9298C1.22156 46.5008 1.65602 46.026 2.05768 45.8284C2.23654 45.7404 2.81759 46.2226 3.06472 46.5572C4.03208 47.8672 4.85497 49.2905 5.88742 50.5447C7.63057 52.6615 8.33227 55.1329 8.67889 57.7588C8.81595 58.7948 8.93608 59.835 9.0054 60.8768C9.03557 61.3284 9.00911 61.8248 8.84717 62.2385C8.57305 62.9409 7.90839 63.1032 7.37867 62.5741C5.7112 60.9084 3.92307 59.3233 2.50061 57.4642C1.00882 55.515 0.806672 53.0599 0.730469 50.1316L0.730998 50.1321Z" fill="#291703"/>
<path d="M10.1294 64.3838C10.257 63.3514 10.321 62.3634 10.5094 61.4001C10.9179 59.3112 11.8514 57.5317 13.6014 56.1985C14.8048 55.2816 15.8775 54.194 17.0809 53.277C17.4312 53.0099 18.0895 52.8987 18.497 53.0362C18.7737 53.13 19.0108 53.784 19.0066 54.185C18.9822 56.6095 18.6949 59.013 17.6228 61.2188C17.1491 62.1932 16.4157 63.05 15.751 63.9232C14.6937 65.3117 13.6179 66.6882 12.4965 68.0256C12.2547 68.3144 11.7276 68.6305 11.4397 68.5499C11.0804 68.4498 10.6533 67.9913 10.5718 67.6188C10.3374 66.5485 10.2628 65.444 10.1289 64.3838H10.1294Z" fill="#291703"/>
<path d="M24.2852 12.6697C24.9646 8.88822 26.5358 5.64848 29.5575 3.22025C30.0464 2.82714 30.6349 2.50095 31.2308 2.30492C33.5788 1.53187 35.948 0.822056 38.3108 0.0937987C38.4701 0.0447915 38.6431 0.038468 38.8871 0C38.8574 0.16283 38.8701 0.282978 38.8172 0.357806C37.2265 2.61214 35.6574 4.8828 34.0143 7.09814C33.5936 7.66515 32.9988 8.17525 32.3743 8.50881C29.7363 9.91895 27.0576 11.2527 24.2852 12.6697Z" fill="#291703"/>
<path d="M9.66158 53.4135C9.85579 50.981 10.3686 48.6366 11.844 46.6294C12.3149 45.9892 12.933 45.4011 13.6019 44.9711C15.1186 43.9962 16.6934 43.1072 18.28 42.2483C18.6017 42.0744 19.2224 42.0185 19.4495 42.2098C19.7331 42.4485 19.9395 43.0419 19.8559 43.4086C19.323 45.7367 18.6483 48.0411 17.1369 49.9503C16.4622 50.8029 15.5652 51.4859 14.7402 52.2136C13.7369 53.0994 12.6975 53.9452 11.6852 54.821C11.2476 55.1999 10.7824 55.8201 10.2125 55.3516C9.8505 55.0544 9.80446 54.3662 9.64041 53.8461C9.59967 53.7165 9.65153 53.5584 9.66105 53.4135H9.66158Z" fill="#291703"/>
<path d="M9.95744 43.4292C9.81773 44.6623 9.66427 46.366 9.40232 48.0533C9.34305 48.4338 8.95304 48.9781 8.63235 49.0429C8.31801 49.1067 7.77136 48.7431 7.54645 48.4169C6.45844 46.8376 5.33867 45.2646 4.4327 43.5815C3.3902 41.6449 3.39073 39.4992 3.79027 37.3824C4.03687 36.0755 4.38031 34.7781 4.80419 33.5182C4.94284 33.1056 5.47256 32.8236 5.82394 32.4822C6.13722 32.8115 6.55528 33.0903 6.74473 33.4797C7.46813 34.9673 8.05765 36.5213 8.81174 37.9921C9.61876 39.5666 9.85425 41.2329 9.95797 43.4298L9.95744 43.4292Z" fill="#291703"/>
<path d="M12.3349 42.3308C11.5957 42.3345 11.1591 41.8476 11.3115 41.2026C11.9571 38.4682 13.0022 35.9162 15.2402 34.075C15.916 33.519 16.8061 33.1934 17.639 32.8635C18.8836 32.3703 20.1526 31.9271 21.4375 31.5514C21.7947 31.447 22.3885 31.5219 22.6097 31.759C22.8224 31.9866 22.8478 32.61 22.6875 32.923C21.9731 34.3174 21.2343 35.7101 20.3664 37.0128C19.552 38.2343 18.4169 39.1438 17.0664 39.8035C15.6799 40.4812 14.3511 41.2759 12.9943 42.0141C12.7435 42.1506 12.4783 42.2623 12.3344 42.3308H12.3349Z" fill="#291703"/>
<path d="M14.2526 28.1542C14.1155 30.5655 13.4053 32.8051 12.5369 34.9962C12.4046 35.3298 11.9437 35.6934 11.6008 35.7302C11.3642 35.7561 10.9647 35.2887 10.8186 34.9619C10.2376 33.6635 9.75233 32.3235 9.1861 31.0177C8.35157 29.0937 8.4881 27.1266 9.07655 25.2206C9.52742 23.7614 10.227 22.3681 10.9261 21.0012C11.1235 20.6155 11.7087 20.4263 12.1162 20.1465C12.3305 20.5269 12.6332 20.8832 12.7433 21.2916C13.1444 22.775 13.499 24.2715 13.8361 25.7707C14.0128 26.5564 14.1166 27.359 14.2531 28.1536L14.2526 28.1542Z" fill="#291703"/>
<path d="M26.564 21.477C27.7446 21.4523 28.1859 22.073 27.6366 22.8556C25.9215 25.2985 24.0863 27.6093 20.9329 28.3607C19.6067 28.6764 18.3335 29.207 17.0174 29.5706C16.6501 29.6723 16.0416 29.6728 15.8553 29.4552C15.6521 29.2175 15.659 28.5868 15.8368 28.2774C16.5422 27.0491 17.2751 25.8223 18.1361 24.7004C19.6189 22.7681 21.77 22.1025 24.0969 21.8406C24.9918 21.74 25.8797 21.5793 26.564 21.477Z" fill="#291703"/>
<path d="M21.3792 15.2708C20.9759 16.623 20.6658 18.012 20.1419 19.3162C19.6789 20.4687 19.0153 21.549 18.3575 22.6108C18.1654 22.9206 17.6944 23.2068 17.3441 23.2152C17.1398 23.2205 16.8054 22.6793 16.7292 22.3399C16.4058 20.8955 16.1286 19.4396 15.8894 17.9783C15.6502 16.5176 15.9851 15.1027 16.6736 13.8464C17.4515 12.4263 18.4057 11.0962 19.3593 9.78145C19.5667 9.49531 20.0959 9.44103 20.4764 9.27979C20.6219 9.62863 20.8833 9.97484 20.8934 10.3274C20.9384 11.9504 20.9135 13.5756 20.9135 15.2002C21.0685 15.2234 21.2241 15.2465 21.3792 15.2703V15.2708Z" fill="#291703"/>
<path d="M23.1006 18.2029C22.4264 18.1929 22.0893 17.6733 22.5089 17.0504C23.8525 15.0559 25.5491 13.407 27.867 12.6429C28.8518 12.3183 29.9906 12.4327 31.0612 12.3968C31.9629 12.3663 32.871 12.3615 33.7685 12.44C34.0918 12.4685 34.4596 12.7162 34.6718 12.9739C34.7798 13.1051 34.6782 13.5714 34.5162 13.7332C32.8705 15.3773 31.1569 17.0056 28.7994 17.5004C26.9599 17.8862 25.058 17.9736 23.1011 18.2034L23.1006 18.2029Z" fill="#291703"/>
<path d="M27.9141 103.12C28.2268 102.843 28.4787 102.62 28.8137 102.324C33.2007 106.854 38.0549 110.732 43.5722 113.936C43.3923 114.283 43.2293 114.597 43.0203 115C37.385 111.741 32.409 107.812 27.9141 103.12Z" fill="#291703"/>
<path d="M218.523 100.831C221.395 100.16 224.235 99.6993 226.919 98.786C228.336 98.3039 229.617 97.1693 230.724 96.0891C232.722 94.1388 234.128 91.7432 235.216 89.1748C235.341 88.8818 235.457 88.5736 235.502 88.2616C235.633 87.3479 234.875 86.6992 234.032 87.0443C231.255 88.181 228.443 89.2507 225.74 90.5428C223.079 91.8138 221.19 94.0513 219.333 96.2693C218.68 97.0502 218.032 97.8481 217.499 98.7107C217.277 99.0701 217.195 99.6972 217.362 100.059C217.521 100.403 218.088 100.561 218.523 100.831V100.831Z" fill="#291703"/>
<path d="M239.527 74.4935C239.398 74.2864 239.254 73.7721 238.943 73.635C238.63 73.4975 238.078 73.6224 237.756 73.8274C235.592 75.2017 233.369 76.5112 231.351 78.0789C230.02 79.1138 228.843 80.4376 227.879 81.8261C226.723 83.4892 225.816 85.3341 224.92 87.1573C224.698 87.6089 224.751 88.3973 225.019 88.8115C225.185 89.066 226.063 89.0728 226.508 88.9005C228.653 88.0679 230.787 87.1948 232.872 86.222C234.654 85.3899 235.803 83.8507 236.787 82.2134C238.024 80.1541 238.898 77.9424 239.379 75.5848C239.437 75.3013 239.459 75.0099 239.527 74.4935Z" fill="#291703"/>
<path d="M216.059 82.4163C216.212 83.0655 216.446 84.2264 216.759 85.3657C217.336 87.463 217.925 89.5582 218.59 91.6286C218.728 92.0565 219.173 92.5782 219.57 92.6736C219.92 92.7579 220.569 92.4196 220.796 92.0771C222.781 89.085 224.2 85.851 223.623 82.1908C223.383 80.6631 222.536 79.2108 221.853 77.7775C221.291 76.6003 220.611 75.471 219.882 74.3876C219.652 74.0456 219.079 73.7173 218.697 73.7521C218.316 73.7868 217.794 74.2152 217.65 74.591C216.751 76.9328 216.226 79.3668 216.059 82.4163H216.059Z" fill="#291703"/>
<path d="M229.61 75.0819C229.617 76.1654 230.425 76.6865 231.269 76.1364C233.244 74.848 235.305 73.6397 237.069 72.1004C238.161 71.1482 238.957 69.7301 239.556 68.3764C240.574 66.0767 240.994 63.5942 240.901 61.0685C240.883 60.5916 240.592 59.9751 240.221 59.719C240.015 59.5767 239.292 59.9493 238.959 60.2575C237.356 61.7383 235.734 63.2111 234.263 64.8173C233.333 65.8322 232.447 66.9884 231.914 68.2383C231.018 70.3377 230.417 72.5625 229.695 74.7352C229.65 74.8717 229.626 75.015 229.609 75.0819H229.61Z" fill="#291703"/>
<path d="M220.334 68.5384C220.116 71.4451 221.149 73.9551 222.632 76.3696C223.375 77.579 223.887 78.928 224.593 80.1632C224.838 80.5911 225.357 81.1396 225.745 81.1343C226.149 81.1285 226.741 80.5984 226.912 80.1647C228.03 77.335 228.56 74.4056 227.86 71.384C227.681 70.6115 227.345 69.8158 226.878 69.1792C225.62 67.4687 224.252 65.8394 222.931 64.1752C222.559 63.7067 222.041 63.3115 221.514 63.6235C221.116 63.859 220.771 64.4303 220.691 64.9014C220.486 66.0991 220.443 67.3243 220.334 68.5384H220.334Z" fill="#291703"/>
<path d="M240.176 50.1321C240.092 49.4007 240.016 48.1486 239.771 46.9298C239.685 46.5008 239.251 46.026 238.849 45.8284C238.67 45.7404 238.089 46.2226 237.842 46.5572C236.875 47.8672 236.052 49.2905 235.019 50.5447C233.276 52.6615 232.575 55.1329 232.228 57.7588C232.091 58.7948 231.971 59.835 231.901 60.8768C231.871 61.3284 231.898 61.8248 232.06 62.2385C232.334 62.9409 232.999 63.1032 233.528 62.5741C235.196 60.9084 236.984 59.3233 238.406 57.4642C239.898 55.515 240.1 53.0599 240.176 50.1316L240.176 50.1321Z" fill="#291703"/>
<path d="M230.776 64.3838C230.648 63.3514 230.584 62.3634 230.396 61.4001C229.987 59.3112 229.054 57.5317 227.304 56.1985C226.1 55.2816 225.028 54.194 223.824 53.277C223.474 53.0099 222.816 52.8987 222.408 53.0362C222.131 53.13 221.894 53.784 221.898 54.185C221.923 56.6095 222.21 59.013 223.282 61.2188C223.756 62.1932 224.489 63.05 225.154 63.9232C226.211 65.3117 227.287 66.6882 228.409 68.0256C228.65 68.3144 229.177 68.6305 229.465 68.5499C229.825 68.4498 230.252 67.9913 230.333 67.6188C230.568 66.5485 230.643 65.444 230.776 64.3838H230.776Z" fill="#291703"/>
<path d="M216.629 12.6697C215.95 8.88822 214.379 5.64848 211.357 3.22025C210.868 2.82714 210.28 2.50095 209.684 2.30492C207.336 1.53187 204.966 0.822056 202.604 0.0937987C202.444 0.0447915 202.271 0.038468 202.027 0C202.057 0.16283 202.044 0.282978 202.097 0.357806C203.688 2.61214 205.257 4.8828 206.9 7.09814C207.321 7.66515 207.916 8.17525 208.54 8.50881C211.178 9.91895 213.857 11.2527 216.629 12.6697Z" fill="#291703"/>
<path d="M231.256 53.4135C231.062 50.981 230.549 48.6366 229.074 46.6294C228.603 45.9892 227.985 45.4011 227.316 44.9711C225.799 43.9962 224.224 43.1072 222.638 42.2483C222.316 42.0744 221.695 42.0185 221.468 42.2098C221.185 42.4485 220.978 43.0419 221.062 43.4086C221.595 45.7367 222.269 48.0411 223.781 49.9503C224.455 50.8029 225.352 51.4859 226.177 52.2136C227.181 53.0994 228.22 53.9452 229.232 54.821C229.67 55.1999 230.135 55.8201 230.705 55.3516C231.067 55.0544 231.113 54.3662 231.277 53.8461C231.318 53.7165 231.266 53.5584 231.257 53.4135H231.256Z" fill="#291703"/>
<path d="M230.954 43.4292C231.094 44.6623 231.247 46.366 231.509 48.0533C231.569 48.4338 231.959 48.9781 232.279 49.0429C232.594 49.1067 233.14 48.7431 233.365 48.4169C234.453 46.8376 235.573 45.2646 236.479 43.5815C237.521 41.6449 237.521 39.4992 237.121 37.3824C236.875 36.0755 236.531 34.7781 236.107 33.5182C235.968 33.1056 235.439 32.8236 235.087 32.4822C234.774 32.8115 234.356 33.0903 234.166 33.4797C233.443 34.9673 232.853 36.5213 232.099 37.9921C231.292 39.5666 231.057 41.2329 230.953 43.4298L230.954 43.4292Z" fill="#291703"/>
<path d="M228.581 42.3308C229.32 42.3345 229.757 41.8476 229.605 41.2026C228.959 38.4682 227.914 35.9162 225.676 34.075C225 33.519 224.11 33.1934 223.277 32.8635C222.032 32.3703 220.763 31.9271 219.479 31.5514C219.121 31.447 218.528 31.5219 218.306 31.759C218.094 31.9866 218.068 32.61 218.229 32.923C218.943 34.3174 219.682 35.7101 220.55 37.0128C221.364 38.2343 222.499 39.1438 223.85 39.8035C225.236 40.4812 226.565 41.2759 227.922 42.0141C228.173 42.1506 228.438 42.2623 228.582 42.3308H228.581Z" fill="#291703"/>
<path d="M226.657 28.1542C226.794 30.5655 227.504 32.8051 228.372 34.9962C228.505 35.3298 228.966 35.6934 229.309 35.7302C229.545 35.7561 229.945 35.2887 230.091 34.9619C230.672 33.6635 231.157 32.3235 231.723 31.0177C232.558 29.0937 232.421 27.1266 231.833 25.2206C231.382 23.7614 230.682 22.3681 229.983 21.0012C229.786 20.6155 229.201 20.4263 228.793 20.1465C228.579 20.5269 228.276 20.8832 228.166 21.2916C227.765 22.775 227.41 24.2715 227.073 25.7707C226.896 26.5564 226.793 27.359 226.656 28.1536L226.657 28.1542Z" fill="#291703"/>
<path d="M214.346 21.477C213.165 21.4523 212.724 22.073 213.273 22.8556C214.988 25.2985 216.823 27.6093 219.977 28.3607C221.303 28.6764 222.576 29.207 223.892 29.5706C224.26 29.6723 224.868 29.6728 225.054 29.4552C225.258 29.2175 225.251 28.5868 225.073 28.2774C224.368 27.0491 223.635 25.8223 222.774 24.7004C221.291 22.7681 219.14 22.1025 216.813 21.8406C215.918 21.74 215.03 21.5793 214.346 21.477Z" fill="#291703"/>
<path d="M219.539 15.2708C219.942 16.623 220.252 18.012 220.776 19.3162C221.239 20.4687 221.903 21.549 222.561 22.6108C222.753 22.9206 223.224 23.2068 223.574 23.2152C223.778 23.2205 224.113 22.6793 224.189 22.3399C224.512 20.8955 224.79 19.4396 225.029 17.9783C225.268 16.5176 224.933 15.1027 224.245 13.8464C223.467 12.4263 222.513 11.0962 221.559 9.78145C221.352 9.49531 220.822 9.44103 220.442 9.27979C220.296 9.62863 220.035 9.97484 220.025 10.3274C219.98 11.9504 220.005 13.5756 220.005 15.2002C219.85 15.2234 219.694 15.2465 219.539 15.2703V15.2708Z" fill="#291703"/>
<path d="M217.811 18.2029C218.485 18.1929 218.823 17.6733 218.403 17.0504C217.059 15.0559 215.363 13.407 213.045 12.6429C212.06 12.3183 210.921 12.4327 209.851 12.3968C208.949 12.3663 208.041 12.3615 207.143 12.44C206.82 12.4685 206.452 12.7162 206.24 12.9739C206.132 13.1051 206.234 13.5714 206.396 13.7332C208.041 15.3773 209.755 17.0056 212.112 17.5004C213.952 17.8862 215.854 17.9736 217.811 18.2034L217.811 18.2029Z" fill="#291703"/>
<path d="M212.99 103.12C212.677 102.843 212.426 102.62 212.091 102.324C207.704 106.854 202.849 110.732 197.332 113.936C197.512 114.283 197.675 114.597 197.884 115C203.519 111.741 208.495 107.812 212.99 103.12Z" fill="#291703"/>
</svg>
